<svg xmlns="http://www.w3.org/2000/svg" width="80.91" height="60.442" viewBox="0 0 80.91 60.442"><defs><style>.a{fill:#6dd5dc;}</style></defs><path class="a" d="M6,13.772A4.928,4.928,0,0,1,11.057,9h70.8a4.928,4.928,0,0,1,5.057,4.772,4.928,4.928,0,0,1-5.057,4.772h-70.8A4.928,4.928,0,0,1,6,13.772ZM6,39.221a4.928,4.928,0,0,1,5.057-4.772h70.8a4.78,4.78,0,1,1,0,9.543h-70.8A4.928,4.928,0,0,1,6,39.221ZM6,64.67A4.928,4.928,0,0,1,11.057,59.9h70.8a4.78,4.78,0,1,1,0,9.543h-70.8A4.928,4.928,0,0,1,6,64.67Z" transform="translate(-6 -9)"/></svg>