<svg xmlns="http://www.w3.org/2000/svg" xmlns:xlink="http://www.w3.org/1999/xlink" width="697.454" height="856.171" viewBox="0 0 697.454 856.171">
  <defs>
    <linearGradient id="linear-gradient" x1="0.5" x2="0.5" y2="1" gradientUnits="objectBoundingBox">
      <stop offset="0"/>
      <stop offset="1" stop-color="#4643a3"/>
    </linearGradient>
  </defs>
  <g id="Skull" transform="translate(-168.602 -1358.842)" opacity="0.23" style="isolation: isolate">
    <path id="Path_1" data-name="Path 1" d="M413.053,2214V1881.777H388.588v55.454h13.864v75.026l-33.436-30.989V1956.8l-39.96-24.465v-68.5h-3.894v33.224L169.688,1777.33,199.8,1599.174l48.93-143.654L426.415,1379.3V1453.5H402.742v15.99h-4.569v20.844H407.6V1458.35h24.841v-81.662l22.842-9.137v126.2H426.415l-39.949,39.118,7.138,6.282,35.977-35.691h34.835V1359.842h17.7v154.187H470.412v12.849h17.132V1359.842h16.846v201.3h-13.42v21.7h13.42v40.545H517.24V1359.842h26.269v169.891h12.849V1359.842h32.265v71.668H577.2v15.7h16.846v-84.232l191.877,84.232,48.255,143.908,30.787,175.967-128.022,98.856v-15.594H723.107v26.576l-16.473,11.861v33.824l-20.646,12.3H664.9v-67.429h-5.491V1895.6H615.923l-3.734-4.612H597.254v9.225h62.158l.879,195.918H638.546v34.264H621.195v-41.073h-23.5l-.439-154.406h-14.5l1.1,154.406H559.7v62.432l34.044,34.264h24.819l13.178-12.959h6.809v23.062l-9.225,9.445H592.2l-47.881-47.881V2031.608H535.1l.439,181.861h-21.36l.879-129.368H501.162v96.422H467.337V2074.218l36.9-35.142V2006.13h48.98v-5.271h-54.69V2036l-31.189,30.969v-90.711h59.577v-23.941h11.641v-19.548H499.9v19.548h12.739v9.225H453.775l.439,251.926Z" fill="#fff" stroke="#000" stroke-width="2"/>
    <path id="Path_2" data-name="Path 2" d="M517.745,1803.348,482.6,1868.581l21.525,36.24h26.8l22.623-35.142Z" stroke="#000" stroke-width="1" fill="url(#linear-gradient)"/>
    <path id="Path_3" data-name="Path 3" d="M369.878,1989.2l.65,129.184h31.321V2020Z" fill="#fff" stroke="#000" stroke-width="2"/>
    <path id="Path_4" data-name="Path 4" d="M574.6,2103.175v43.018l24.823,25.343h14.036l12.477-13.256h13v-13.386H607.224v-41.718Z" fill="#fff" stroke="#000" stroke-width="2"/>
    <path id="Path_5" data-name="Path 5" d="M414.991,1847.043l-123.606-43.058s-7.795-14.848-9.28-28.953-1.056-27.459,0-34.15a277.342,277.342,0,0,1,18.56-62.731s56.05,5.939,120.266,30.066c21.529,12.992,20.787,16.332,36.377,32.665,4.454,6.31,28.582,36.005,28.582,36.005Z" stroke="#000" stroke-width="1" fill="url(#linear-gradient)"/>
    <path id="Path_6" data-name="Path 6" d="M548.341,1776.7l70.619,70.526L742.195,1803.8s11.136-15.961,11.136-46.77c-.371-11.507-8.909-59.762-18.931-78.692-42.78,4.083-105.511,18.931-136.32,38.975C580.263,1732.9,548.341,1776.7,548.341,1776.7Z" stroke="#000" stroke-width="1" fill="url(#linear-gradient)"/>
  </g>
</svg>
